<?xml version="1.0" encoding="UTF-8" standalone="no"?>
<!-- Created with Inkscape (http://www.inkscape.org/) -->
<svg xmlns:rdf="http://www.w3.org/1999/02/22-rdf-syntax-ns#" xmlns="http://www.w3.org/2000/svg" xmlns:cc="http://creativecommons.org/ns#" xmlns:xlink="http://www.w3.org/1999/xlink" xmlns:dc="http://purl.org/dc/elements/1.1/" xmlns:svg="http://www.w3.org/2000/svg" xmlns:inkscape="http://www.inkscape.org/namespaces/inkscape" xmlns:sodipodi="http://sodipodi.sourceforge.net/DTD/sodipodi-0.dtd" xmlns:ns1="http://sozi.baierouge.fr" id="svg2" viewBox="0 0 678.76 629.85" version="1.1" inkscape:version="0.91 r13725">
  <defs id="defs4">
    <filter id="filter4719" color-interpolation-filters="sRGB">
      <feGaussianBlur id="feGaussianBlur4721" stdDeviation="7.7325439"/>
    </filter>
  </defs>
  <g id="layer1" transform="translate(-21.196 -8.7489)">
    <g id="g4769" transform="matrix(1.209 0 0 1.209 -2100.3 487.84)">
      <path id="path4637" style="filter:url(#filter4719);fill:#000000" d="m2042-356.21c-2.6404-0.0483-5.2677 1.7261-7.2991 5.3922-82.822 132.85-108.29 230.53-225.67 332.63-8.7957 2.5436-29.716 23.079 17.247 40.02 58.82 39.647 257.57 49.363 420.97 59.849 9.4853 0.61228 34.798 14.084 28.402 2.5075l-97.51-211.65-128.69-223.27c-2.1426-3.5646-4.8153-5.44-7.4558-5.4883zm-1.7543 87.637c3.3503-0.0345 6.0929 3.9057 7.4871 6.6981l89.971 156.06 85.773 148.84c5.6393 8.6829-0.4129 11.271-6.328 10.346-117.41-7.5178-233.56 7.7438-343.37-58.122-8.8177-4.6673-8.1906-10.02-6.4532-12.702 57.142-48.098 107.97-151.96 166.4-245.68 2.2645-3.966 4.5058-5.4215 6.516-5.4422z" transform="matrix(1.0451 0 0 1.0497 -103.45 -2.8924)"/>
      <g id="g4574" transform="matrix(3.1534 0 0 3.1534 -4486.1 -2720.8)">
        <path id="path4566" style="stroke:#000000;stroke-width:1px;fill:#000000" d="m2049.3 815.74c-1.5423 0.2094-1.5 8.5-2.25 12.75-0.7217-2.2521-6.0725-3.9716-4.0163-0.38518 1.2056 2.034 6.643 4.5554 2.5081 6.0742-3.4158 1.5833-3.5628 6.0572-2.241 9.1 1.3663 3.3616 1.7565 7.082 1.7349 10.684-1.0601 3.3029-2.3631 6.5715-3.4819 9.8813-0.8554 2.4132-1.7901 5.8563-2.6456 8.2695 3.9935 0.46274 4.1475 0.45012 8.0626 0.59595 1.9404-5.485 5.0579-11.826 6.1739-17.567 0.4115-3.9769-0.5888-7.8996-0.9385-11.84 2.3125 3.2812 6.6978 8.0191 6.9375 9.8438 0.5058 2.3884-5.6127 13.347-8.3002 19.544 4.349-0.31691 3.3899 0.31691 7.8974-0.15845 2.8022-6.7303 8.4947-15.994 8.7553-19.604 0.3425-1.7571-3.4046-7.3237-5.415-10.313 6.7917 5.1562 13.583 10.313 20.375 15.469-1.4027 0.9904-1.7924 4.6277-3.4237 4.0916-1.8598-0.61116-7.4133-0.66945-6.8001 2.3804 0.7187 3.574-9.7237 2.6159-8.8074 6.9655 1.0464 3.5552 4.5819 1.7466 7.8674 1.9358 2.4054 0.0602 4.7315-3.4475 7.2064-0.97725 2.7574 2.6132 4.9372-2.759 7.6775 0.1869 2.6025 1.843 4.1812-2.7054 7.3545-1.1201 3.4997 0.38776 7.7146-1.1833 10.583 1.5193 1.9958 0.38352 8.1727 0.2602 6.5243-1.4768-1.5029-5.1707-6.2858-1.695-7.9972-4.896-0.7495-2.7011-1.7927-4.8208-3.2429-7.1218-3.2567-5.1228-5.5444-1.9681-6.7501-5.0646-1.0137-4.0125-4.2094 0.86807-6.3857 1.4247-1.2551 0.0387-2.2635-1.3845-3.4155-1.9567-3.9427-2.7449-7.8854-5.4898-11.828-8.2348-0.2471-2.8771-2.5645-6.3261 0.3368-8.6559 2.1716-3.0339 7.0608-6.48 3.8749-10.491-2.2527-3.1174-4.6477-6.1092-6.5808-9.4376-1.4835-1.9413-4.1392-0.9937-6.2295-1.2592-4.3733-0.0521-12.154-1.2133-13.12-0.15619zm3.6764 5.1342c1.5364 0.24801 8.2062 1.4544 4.1645 3.4974-1.5536 0.83186-5.2666 4.5386-5.3136 3.3645 0.6472-1.7591 0.502-5.1028 1.1491-6.8619zm11.574 12.991c-0.2907 2.4458 0.2324 6.7591-0.5696 8.0332-1.8568-1.558-7.5323-3.9069-3.0093-5.6351 1.193-0.79939 2.3859-1.5988 3.5789-2.3982z"/>
        <path id="path4568" style="fill:#000000" d="m2088.7 813.84c-0.5428 4.3256-3.6684 8.7974-8.3836 8.8745-4.4338 0.22564-10.004-2.3464-10.056-7.4133-0.1167-4.1798 1.9735-9.3798 6.3896-10.47 6.1289-0.74218 8.107 0.42579 10.315 3.8747 1.0373 1.512 1.5399 3.3274 1.7344 5.1338z"/>
      </g>
      <path id="path4625" style="fill:#ff0000" d="m2042-380.21c-2.6404-0.0483-5.2677 1.7261-7.2991 5.3922-94.23 182.29-95.616 210.24-210.46 332.63-8.7957 2.5436-29.716 23.079 17.247 40.02 58.82 39.647 281.8 62.808 445.2 73.294 9.4853 0.61228 17.767-2.9472 11.372-14.523-85.826-138.64-176.34-276.39-248.61-431.33-2.1426-3.5646-4.8153-5.44-7.4558-5.4883zm-1.7543 87.637c3.3503-0.0345 6.0929 3.9057 7.4871 6.6981 64.414 97.263 124.83 197.52 175.74 304.9 5.6393 8.6829-0.4129 11.271-6.328 10.346-117.41-7.5178-233.56 7.7438-343.37-58.122-8.8177-4.6673-8.1906-10.02-6.4532-12.702 60.221-41.94 111.64-144.62 166.4-245.68 2.2645-3.966 4.5058-5.4215 6.516-5.4422z"/>
    </g>
  </g>
  <metadata>
    <rdf:RDF>
      <cc:Work>
        <dc:format>image/svg+xml</dc:format>
        <dc:type rdf:resource="http://purl.org/dc/dcmitype/StillImage"/>
        <cc:license rdf:resource="http://creativecommons.org/licenses/publicdomain/"/>
        <dc:publisher>
          <cc:Agent rdf:about="http://openclipart.org/">
            <dc:title>Openclipart</dc:title>
          </cc:Agent>
        </dc:publisher>
        <dc:title>UNDER CONSTRUCTION</dc:title>
        <dc:date>2010-07-31T21:17:34</dc:date>
        <dc:description>UNDER CONSTRUCTION</dc:description>
        <dc:source>https://openclipart.org/detail/75661/under-construction-by-inky2010</dc:source>
        <dc:creator>
          <cc:Agent>
            <dc:title>inky2010</dc:title>
          </cc:Agent>
        </dc:creator>
        <dc:subject>
          <rdf:Bag>
            <rdf:li>CONSTRUCTION</rdf:li>
            <rdf:li>FREE</rdf:li>
            <rdf:li>INKY2010</rdf:li>
            <rdf:li>UNDER CONSTRUCTION</rdf:li>
          </rdf:Bag>
        </dc:subject>
      </cc:Work>
      <cc:License rdf:about="http://creativecommons.org/licenses/publicdomain/">
        <cc:permits rdf:resource="http://creativecommons.org/ns#Reproduction"/>
        <cc:permits rdf:resource="http://creativecommons.org/ns#Distribution"/>
        <cc:permits rdf:resource="http://creativecommons.org/ns#DerivativeWorks"/>
      </cc:License>
    </rdf:RDF>
  </metadata>
</svg>
